<svg width="18" height="18" viewBox="0 0 18 18" fill="none" xmlns="http://www.w3.org/2000/svg">
<path d="M10.5156 0.037735L8.29687 1.35805L8.60156 1.8725L9.97656 1.05414L9.57812 3.60922L9.82422 4.02328L12.125 2.65336L11.8203 2.13891L10.3633 3.00375L10.7578 0.449844L10.5156 0.037735ZM4.74609 1.36508C3.38496 2.12232 2.25064 3.22916 1.46025 4.57131C0.669862 5.91346 0.252064 7.44226 0.25 8.99985C0.25 11.3205 1.17187 13.5461 2.81282 15.187C4.45376 16.828 6.67936 17.7498 9 17.7498C10.8919 17.7489 12.7325 17.1347 14.246 15.9995C15.7594 14.8642 16.8641 13.269 17.3945 11.453C16.6366 12.2557 15.723 12.8955 14.7095 13.3334C13.6961 13.7713 12.604 13.9981 11.5 13.9998C9.34511 13.9998 7.27849 13.1438 5.75476 11.6201C4.23102 10.0964 3.375 8.02973 3.375 5.87485C3.37637 4.26913 3.85348 2.69983 4.74609 1.36508ZM14.2969 3.39828L14.0273 4.04281L15.75 4.76156L13.082 6.16391L12.8672 6.67953L15.7461 7.88266L16.0156 7.23813L14.1914 6.47641L16.8594 5.07406L17.0742 4.55844L14.2969 3.39828ZM9.80469 5.89828L5.98437 7.26547L6.30078 8.15219L8.66797 7.30453L7.28516 11.1288L7.53906 11.8358L11.5 10.4217L11.1836 9.535L8.67578 10.4334L10.0586 6.60922L9.80469 5.89828Z" fill="black"/>
</svg>
