<svg width="22" height="28" viewBox="0 0 22 28" fill="none" xmlns="http://www.w3.org/2000/svg">
<path d="M13.2307 21.0065C14.7411 21.5237 16.0748 21.8532 17.991 22.442C17.2548 31.7437 8.45906 28.0497 13.2307 21.0065ZM21.0839 12.4618C20.9847 9.66886 20.4928 6.00521 16.5744 6.57927C14.7375 7.05865 13.3803 9.07595 12.742 12.5564C12.3914 14.4701 12.5953 17.1562 13.0088 18.7664C13.3864 19.9011 13.258 19.8313 13.6638 20.0468C15.2346 20.4007 16.7896 20.7924 18.3731 21.1918C19.9817 20.0558 21.3029 14.0247 21.0839 12.4618ZM8.9914 12.2474C9.40462 10.637 9.60848 7.95092 9.25806 6.03747C8.62023 2.55682 7.26286 0.539193 5.42568 0.0601398C1.50727 -0.513921 1.01534 3.14968 0.91615 5.94274C0.697184 7.50543 2.01853 13.5369 3.62735 14.6727C5.21074 14.2732 6.7655 13.8819 8.33673 13.5277C8.74207 13.3124 8.61365 13.3821 8.9914 12.2474ZM4.00895 15.9232C4.74483 25.2248 13.5406 21.5308 8.76906 14.4877C7.25868 15.005 5.92511 15.3344 4.00895 15.9232Z" fill="black"/>
</svg>
