<svg width="17" height="19" viewBox="0 0 17 19" fill="none" xmlns="http://www.w3.org/2000/svg">
<path d="M15.8063 7.94407H15.7181V3.82565C15.7181 1.71619 14.0019 0 11.8925 0H5.99905C3.88964 0 2.17345 1.71619 2.17345 3.82565V4.53948H2.08009C1.35908 4.53948 0.772461 5.1261 0.772461 5.84716V13.1528C0.772461 13.8739 1.35908 14.4605 2.08009 14.4605H2.17345V15.1743C2.17345 17.2838 3.88959 19 5.99905 19H11.8925C14.0019 19 15.7181 17.2838 15.7181 15.1743V11.0559H15.8063C16.0389 11.0559 16.2274 10.8674 16.2274 10.6348V8.36513C16.2274 8.13259 16.0389 7.94407 15.8063 7.94407ZM11.8925 0.842205C13.5375 0.842205 14.8759 2.18056 14.8759 3.82565V7.94407H11.906V3.82565C11.906 2.98127 11.619 2.17537 11.0761 1.495C10.8825 1.25227 10.6603 1.03312 10.4167 0.842205H11.8925ZM3.01565 3.82565C3.01565 2.18056 4.354 0.842205 5.99905 0.842205H7.43789C6.54245 1.55063 5.98566 2.63934 5.98566 3.82565V4.53948H3.01565V3.82565ZM2.08009 13.6183C1.82344 13.6183 1.61467 13.4095 1.61467 13.1528V5.84716C1.61467 5.59051 1.82344 5.38169 2.08009 5.38169H7.11608C7.37282 5.38169 7.58164 5.59051 7.58164 5.84716V13.1528C7.58164 13.4094 7.37282 13.6183 7.11608 13.6183H2.08009V13.6183ZM5.99905 18.1578C4.354 18.1578 3.01565 16.8194 3.01565 15.1744V14.4605H5.98562V15.1744C5.98562 15.9861 6.28216 16.7747 6.8432 17.4553C7.05868 17.7167 7.30717 17.953 7.5792 18.1578H5.99905ZM8.95523 17.9648C7.87814 17.5583 6.82782 16.4967 6.82782 15.1744V14.4605H7.11603C7.83714 14.4605 8.4238 13.8739 8.4238 13.1528V10.5459C8.43874 10.5475 8.45394 10.5483 8.46932 10.5483C8.70191 10.5483 8.89043 10.3598 8.89043 10.1272V8.87271C8.89043 8.64013 8.70191 8.45161 8.46932 8.45161C8.45394 8.45161 8.43874 8.45245 8.4238 8.45405V5.84716C8.4238 5.1261 7.83714 4.53948 7.11603 4.53948H6.82782V3.82565C6.82782 2.52559 7.6886 1.37554 8.93537 0.98928C10.1754 1.39367 11.0637 2.56841 11.0637 3.82565V7.94407H10.8717C10.6392 7.94407 10.4506 8.13259 10.4506 8.36517V10.6349C10.4506 10.8675 10.6392 11.056 10.8717 11.056H11.0637V15.1744C11.0637 16.5024 10.0247 17.5607 8.95523 17.9648ZM14.8759 15.1744C14.8759 16.8194 13.5375 18.1578 11.8924 18.1578H10.3279C10.5965 17.9544 10.8417 17.7197 11.0544 17.4601C11.6114 16.78 11.9059 15.9896 11.9059 15.1744V11.056H14.8758V15.1744H14.8759ZM15.3852 10.2138H11.2929V8.78628H15.3852V10.2138ZM5.75401 7.61889C5.36757 7.48817 4.94869 7.52811 4.59815 7.71765C4.24766 7.52816 3.82873 7.48822 3.44225 7.61889C2.68435 7.87519 2.27628 8.70033 2.53258 9.45827C2.68564 9.9108 3.33937 10.5022 4.05356 11.1192C4.16158 11.2125 4.25489 11.2931 4.31278 11.3465C4.39341 11.4207 4.49576 11.4579 4.59811 11.4579C4.70046 11.4579 4.80281 11.4207 4.88339 11.3465C4.94128 11.2932 5.03446 11.2127 5.14235 11.1195C5.85667 10.5023 6.51058 9.91089 6.66364 9.45827C6.78784 9.09111 6.7616 8.69758 6.58979 8.35015C6.41802 8.00276 6.12117 7.74305 5.75401 7.61889ZM5.86585 9.18845C5.77427 9.45915 4.89674 10.2186 4.59811 10.4767C4.29984 10.219 3.42195 9.4592 3.33037 9.18845C3.22283 8.87045 3.39407 8.52426 3.71202 8.41668C3.77563 8.39518 3.84132 8.38468 3.90661 8.38468C4.05546 8.38468 4.20201 8.43924 4.31584 8.54208C4.47612 8.6869 4.71996 8.68694 4.88029 8.54213C5.04417 8.39421 5.27555 8.34616 5.4842 8.41668C5.63828 8.46881 5.76279 8.57776 5.83486 8.72351C5.90698 8.86926 5.91798 9.03433 5.86585 9.18845Z" fill="#DBDBDB"/>
</svg>
